<?xml version="1.0" standalone="no"?>
<!DOCTYPE svg PUBLIC "-//W3C//DTD SVG 20010904//EN"
 "http://www.w3.org/TR/2001/REC-SVG-20010904/DTD/svg10.dtd">
<svg version="1.0" xmlns="http://www.w3.org/2000/svg"
 width="217.000000pt" height="217.000000pt" viewBox="0 0 217.000000 217.000000"
 preserveAspectRatio="xMidYMid meet">
<metadata>
Created by potrace 1.14, written by Peter Selinger 2001-2017
</metadata>
<g transform="translate(0.000000,217.000000) scale(0.100000,-0.100000)"
fill="#000000" stroke="none">
<path d="M0 1085 l0 -1085 1085 0 1085 0 0 1085 0 1085 -1085 0 -1085 0 0
-1085z m1150 737 c0 -4 -24 -16 -52 -27 -29 -11 -57 -21 -62 -24 -5 -2 -6 3
-4 10 7 22 118 61 118 41z m-140 -35 c0 -8 -11 -19 -25 -25 l-26 -12 18 25
c20 27 33 32 33 12z m100 -49 c0 -5 -9 -4 -20 2 -11 6 -18 15 -14 21 6 11 34
-7 34 -23z m-170 -13 c-7 -8 -17 -15 -23 -15 -6 0 -2 7 9 15 25 19 30 19 14 0z
m260 -20 c-14 -8 -32 -14 -40 -14 -9 0 -4 6 10 14 14 8 32 14 40 14 9 0 4 -6
-10 -14z m-60 -15 c6 -11 8 -20 6 -20 -3 0 -10 9 -16 20 -6 11 -8 20 -6 20 3
0 10 -9 16 -20z m80 -30 c-26 -20 -55 -26 -64 -12 -2 4 7 9 22 10 14 1 31 7
36 12 6 6 15 10 21 10 5 0 -1 -9 -15 -20z m-123 -5 c-8 -24 -173 -40 -182 -18
-2 7 2 13 10 13 8 0 15 3 15 8 0 4 36 7 80 7 47 0 79 -4 77 -10z m223 6 c0
-13 -39 -21 -47 -9 -3 6 -1 8 5 4 6 -3 13 -2 17 4 8 12 25 13 25 1z m91 -8
c13 -15 12 -15 -8 -4 -24 12 -29 21 -14 21 5 0 15 -7 22 -17z m-152 -36 c5
-13 15 -30 23 -38 27 -28 108 -151 108 -164 0 -5 -12 10 -27 35 -24 41 -76
103 -127 151 -10 9 -15 22 -11 28 10 18 25 13 34 -12z m-335 -22 c-6 -16 -24
-21 -24 -7 0 11 11 22 21 22 5 0 6 -7 3 -15z m213 -78 c-18 -28 -36 -28 -53
-1 -14 20 -12 21 27 22 41 2 41 2 26 -21z m87 -39 c-3 -4 0 -8 5 -8 6 0 11 -5
11 -11 0 -5 -4 -8 -9 -5 -5 3 -11 -3 -14 -14 -6 -23 -39 -39 -45 -22 -2 7 -10
12 -18 12 -17 0 -17 1 -3 37 7 19 12 24 18 14 6 -10 10 -9 14 4 4 9 3 13 -3
10 -12 -7 -13 6 -3 31 6 15 9 14 29 -11 13 -16 21 -32 18 -37z m-353 5 c-11
-21 -20 -35 -21 -31 0 12 33 78 38 74 2 -2 -6 -21 -17 -43z m208 -23 c13 -28
22 -53 19 -56 -3 -3 -23 -6 -44 -6 -44 -2 -95 19 -102 42 -2 9 2 7 11 -5 9
-11 19 -16 24 -11 4 5 2 11 -4 13 -19 7 -16 17 13 47 39 38 56 33 83 -24z m56
-171 c-3 -4 3 -12 12 -18 15 -9 16 -10 2 -11 -20 0 -27 -72 -18 -188 3 -37 1
-57 -9 -64 -20 -17 -32 7 -32 67 0 66 -6 125 -16 149 -5 12 -3 21 4 24 6 2 8
10 5 18 -8 22 27 57 43 43 8 -6 11 -15 9 -20z m-70 -75 c3 -20 4 -39 1 -42 -3
-3 -6 4 -6 15 0 11 -7 26 -15 33 -19 16 -19 30 -1 30 8 0 17 -15 21 -36z
m-261 0 c3 -8 2 -12 -4 -9 -6 3 -10 10 -10 16 0 14 7 11 14 -7z m114 -47 c-3
-14 -5 -14 -23 -1 -17 13 -18 16 -5 24 18 11 33 -2 28 -23z m159 -119 c-3 -8
-6 -5 -6 6 -1 11 2 17 5 13 3 -3 4 -12 1 -19z m-705 -344 c-4 -21 1 -27 27
-37 l32 -12 -2 -99 c-1 -92 -3 -101 -27 -123 -29 -27 -33 -27 -53 -10 -11 10
-13 43 -11 176 3 157 4 163 21 147 12 -11 16 -25 13 -42z m115 20 c2 -13 1
-15 -4 -4 -3 8 -11 19 -17 23 -7 6 -6 7 4 4 8 -2 16 -12 17 -23z m403 5 c0 -5
-4 -9 -9 -9 -22 0 4 -40 33 -50 l31 -10 3 -125 c2 -71 -1 -125 -6 -125 -27 0
-34 34 -33 141 2 81 -1 110 -10 107 -8 -3 -11 -40 -10 -127 2 -117 1 -122 -17
-112 -18 9 -19 21 -16 138 2 70 3 143 3 160 0 25 4 31 16 27 8 -3 15 -10 15
-15z m-408 -46 c7 -9 7 -13 -1 -13 -7 0 -9 -5 -5 -12 10 -16 15 -238 6 -238
-27 1 -31 20 -27 135 5 171 6 184 12 160 3 -11 10 -26 15 -32z m791 2 c-38
-16 -56 -9 -41 15 6 10 18 16 25 13 7 -3 13 1 13 8 1 9 6 7 15 -5 14 -18 13
-21 -12 -31z m52 5 c-3 -5 -1 -11 4 -15 6 -3 7 -13 4 -22 -4 -11 -3 -14 5 -9
12 7 14 -13 14 -153 0 -33 -5 -58 -14 -68 -13 -12 -19 -11 -46 12 -31 26 -31
28 -34 123 l-3 97 30 17 c17 9 29 21 27 28 -1 6 2 9 8 5 6 -3 8 -10 5 -15z
m-727 -131 c-1 -54 1 -101 4 -105 15 -15 28 11 28 57 0 73 23 59 30 -17 6 -57
12 -58 24 -3 6 26 -20 73 -51 92 -9 5 -10 15 -3 33 7 17 7 23 0 19 -6 -3 -10
-2 -10 4 0 10 37 34 55 36 6 1 16 -3 23 -8 10 -8 10 -13 0 -25 -10 -13 -10
-14 0 -8 8 5 12 -2 12 -23 0 -24 -4 -29 -16 -24 -11 4 -15 15 -12 39 2 20 -1
35 -8 38 -35 14 -31 -42 6 -82 25 -27 30 -42 30 -82 0 -41 -4 -52 -27 -69 -24
-20 -28 -20 -50 -5 -22 14 -26 14 -42 0 -15 -14 -20 -14 -48 4 -19 11 -34 30
-38 48 -9 42 10 104 40 132 28 26 33 50 10 50 -8 0 -15 -5 -15 -11 0 -5 -6 -7
-12 -3 -8 5 -8 1 1 -10 13 -15 13 -19 0 -27 -11 -6 -15 -2 -17 17 -5 40 12 54
53 41 l35 -10 -2 -98z m207 109 c24 -11 25 -14 25 -110 0 -85 -3 -101 -20
-118 -11 -11 -24 -20 -30 -20 -5 0 -10 -19 -10 -42 0 -39 -1 -41 -16 -26 -13
13 -16 39 -15 158 2 167 9 184 66 158z m255 -60 c0 -34 -2 -38 -18 -29 -14 7
-17 18 -14 45 3 28 1 36 -12 36 -24 0 -22 -75 2 -85 16 -6 16 -7 0 -16 -27
-15 -23 -119 4 -119 5 0 9 12 8 28 -1 15 -2 40 -1 56 1 24 3 27 16 16 9 -8 15
-29 15 -56 0 -35 -5 -47 -24 -59 -39 -26 -62 -7 -64 51 -1 25 -4 50 -7 54 -3
5 2 16 12 25 12 13 13 19 4 24 -22 14 -9 74 19 88 35 17 60 -7 60 -59z m155
58 c21 -8 21 -2 17 -181 -2 -73 -3 -78 -18 -63 -13 13 -16 36 -15 126 2 82 -1
111 -11 114 -10 4 -13 -17 -12 -103 2 -105 1 -108 -18 -98 -17 9 -19 20 -16
105 2 52 0 94 -4 94 -5 0 -11 1 -15 3 -4 1 -6 -23 -4 -53 6 -92 6 -181 1 -190
-3 -5 -14 -2 -24 6 -15 10 -16 16 -8 27 7 8 10 16 8 18 -3 3 -5 29 -5 59 -1
30 -1 70 -1 89 -1 18 4 39 10 46 11 13 78 13 115 1z m196 -87 c0 -94 8 -146
20 -127 5 7 9 63 9 123 0 72 4 105 10 95 7 -12 16 -13 55 -2 62 16 82 4 77
-49 -4 -41 -10 -47 -29 -28 -7 7 -8 21 -3 40 7 24 6 29 -9 29 -27 0 -15 -48
20 -85 25 -27 28 -37 25 -75 -6 -57 -45 -97 -76 -77 -11 6 -18 19 -15 27 4 14
6 129 2 178 -1 12 -7 22 -14 22 -10 0 -13 -25 -13 -99 0 -80 -3 -103 -18 -121
l-18 -22 -24 20 c-23 18 -25 29 -30 126 -6 121 -4 134 16 114 10 -10 15 -38
15 -89z"/>
<path d="M370 551 c0 -64 4 -111 10 -111 24 0 27 210 3 218 -10 3 -13 -23 -13
-107z"/>
<path d="M1302 668 c-18 -18 -16 -189 2 -214 13 -17 15 -6 18 99 2 66 0 121
-3 123 -3 2 -11 -2 -17 -8z"/>
<path d="M546 574 c-9 -24 -7 -107 4 -124 7 -10 10 9 10 63 0 78 -3 90 -14 61z"/>
<path d="M775 660 c-3 -6 -5 -58 -4 -116 2 -91 4 -104 16 -88 9 12 12 47 11
112 -2 89 -9 115 -23 92z"/>
<path d="M1518 558 c7 -7 12 -36 12 -66 0 -33 4 -51 10 -47 6 3 10 28 10 54 0
45 -12 71 -34 71 -6 0 -5 -5 2 -12z"/>
</g>
</svg>
